<?xml version="1.0" encoding="UTF-8" standalone="no"?>
<svg width="494px" height="495px" viewBox="0 0 494 495" version="1.1" xmlns="http://www.w3.org/2000/svg" xmlns:xlink="http://www.w3.org/1999/xlink" xmlns:sketch="http://www.bohemiancoding.com/sketch/ns">
    <!-- Generator: Sketch 3.2.2 (9983) - http://www.bohemiancoding.com/sketch -->
    <title>Group</title>
    <desc>Created with Sketch.</desc>
    <defs></defs>
    <g id="Page-1" stroke="none" stroke-width="1" fill="none" fill-rule="evenodd" sketch:type="MSPage">
        <g id="Group" sketch:type="MSLayerGroup">
            <rect id="Rectangle-1" fill="#F52A2D" sketch:type="MSShapeGroup" x="0" y="0" width="494" height="495"></rect>
            <path d="M45.7226562,181.810547 C45.7226562,181.810547 61.8287373,92.2148438 169.703125,92.2148438 C277.577513,92.2148438 293.683594,172.210938 293.683594,172.210938 L293.683594,314.5 C293.683594,314.5 287.171875,399.800781 172.201172,399.800781 C57.2304688,399.800781 45.7226562,314.5 45.7226562,314.5 L45.7226562,181.810547 Z" id="Path-1" fill="#FFFFFF" sketch:type="MSShapeGroup"></path>
            <path d="M106.02947,186.316406 C106.02947,186.316406 112.544935,142.285156 169.594819,142.285156 C226.644704,142.285156 233.525657,186.316406 233.525657,186.316406 L233.525657,308.656383 C233.525657,308.656383 227.989431,352.1875 171.21697,352.1875 C114.444509,352.1875 105.663984,308.656383 105.663984,308.656383 L106.02947,186.316406 Z" id="Path-2" fill="#F52A2D" sketch:type="MSShapeGroup"></path>
            <path d="M292.652344,224.085938 C292.652344,224.085938 306.00293,226.394531 320.364258,216.974121 C334.725586,207.553711 350.642578,188.296875 350.642578,188.296875 C350.642578,188.296875 348.550293,215.925782 339.376465,228.192871 C330.202637,240.45996 324.693359,249.872071 292.652344,266.828613 L292.652344,224.085938 Z" id="Path-3" fill="#FFFFFF" sketch:type="MSShapeGroup"></path>
            <path d="M375.125285,100.135439 C375.112184,97.9313213 376.889559,96.0188973 379.087248,95.8644763 L425.319002,92.6159925 C427.520235,92.4613224 429.311505,94.1195661 429.319946,96.3281322 L430.209186,328.979368 C430.213389,330.079152 430.096199,331.864165 429.926641,332.950836 C429.926641,332.950836 426.533203,363.25782 405.523438,376.925781 C400.087737,380.461991 372.349518,397.808055 346.308594,396.726562 C317.382351,395.525241 293.758409,379.070651 293.758409,379.070651 C291.898433,377.886072 291.128629,375.303634 292.046067,373.287088 L307.860183,338.527365 C308.774458,336.51777 311.045939,335.805596 312.978861,336.879793 C312.978861,336.879793 331.214844,348.789062 349.619141,344.570312 C368.023438,340.351562 376.427734,319.248047 376.427734,319.248047 L375.125285,100.135439 Z" id="Path-4" fill="#FFFFFF" sketch:type="MSShapeGroup"></path>
        </g>
    </g>
</svg>